# xmcd CD database file
#
# Track frame offsets:
#	150
#	18569
#	31254
#	47992
#	61879
#	87808
#	102672
#	114469
#	134125
#	146328
#	167191
#	182441
#	204072
#	219120
#	232984
#	247286
#
# Disc length: 3461 seconds
#
# Revision: 1
# Processed by: cddbd v1.5.2PL0 Copyright (c) Steve Scherf et al.
# Submitted via: CDex 1.70beta2
#
DISCID=de0d8310
DTITLE=Porca Véia - 16 Grandes Sucessos
DYEAR=1900
DGENRE=Country
TTITLE0=Lembranças
TTITLE1=Bailão Popular
TTITLE2=Recorrendo Os Agupés
TTITLE3=Morena Dos Olhos Verdes
TTITLE4=No Coração Do Rio Grande
TTITLE5=Sentimento De Trovador
TTITLE6=Gineteada
TTITLE7=Sanga Do Tempo
TTITLE8=Orelhador De Cordeona
TTITLE9=Caminhos Que Me Levam à Tí
TTITLE10=Tropeiro De Esperanças
TTITLE11=Minha Morena
TTITLE12=Fazenda Da Viúva
TTITLE13=Chasque Para Um Parceiro
TTITLE14=Um Pedaço Da Minha Vida
TTITLE15=Do Jeito Que Eu Sou
EXTD=
EXTT0=
EXTT1=
EXTT2=
EXTT3=
EXTT4=
EXTT5=
EXTT6=
EXTT7=
EXTT8=
EXTT9=
EXTT10=
EXTT11=
EXTT12=
EXTT13=
EXTT14=
EXTT15=
PLAYORDER=
